<svg width="512" height="512" viewBox="0 0 512 512" fill="none" xmlns="http://www.w3.org/2000/svg">
<g id="arrow" clip-path="url(#clip0_19_2)">
<path id="Vector" d="M335.031 408.187C330.344 403.5 328 397.375 328 391.219C328 385.063 330.344 378.937 335.031 374.25L430.062 279.219H24C10.75 279.219 0 268.469 0 255.219C0 241.969 10.75 231.219 24 231.219H430.062L335.031 136.187C325.656 126.812 325.656 111.625 335.031 102.25C344.406 92.875 359.594 92.875 368.969 102.25L504.969 238.25C514.344 247.625 514.344 262.812 504.969 272.187L368.969 408.187C359.594 417.562 344.406 417.562 335.031 408.187Z" fill="#1D70AF"/>
</g>
<defs>
<clipPath id="clip0_19_2">
<rect width="512" height="512" fill="white"/>
</clipPath>
</defs>
</svg>
