<svg width="48" height="48" viewBox="0 0 48 48" fill="none" xmlns="http://www.w3.org/2000/svg">
<g id="bashiri-logo">
<rect id="Rectangle 2" width="48" height="48" fill="#13B6F6"/>
<path id="&#208;&#145;" d="M21.6836 21.1621H23.8281C27.1797 21.1621 29.7695 21.8418 31.5977 23.2012C33.4258 24.5605 34.3398 26.4824 34.3398 28.9668C34.3398 34.3223 30.8008 37 23.7227 37H16.2344V11.3008H32.4766V15.8008H21.6836V21.1621ZM21.6836 32.5352H23.5117C25.3516 32.5352 26.6992 32.2422 27.5547 31.6562C28.4102 31.0586 28.8379 30.1621 28.8379 28.9668C28.8379 27.7832 28.4043 26.9336 27.5371 26.418C26.6699 25.8906 25.1816 25.627 23.0723 25.627H21.6836V32.5352Z" fill="#011936"/>
</g>
</svg>
